# xmcd
#
# Track frame offsets: 
#        150
#        11227
#        25481
#        42884
#        59813
#        79182
#        96829
#        115553
#        128605
#        146262
#        158814
#        173522
#        186697
#        199721
#        216399
#        242232
#        262887
#        277497
#        302444
#        318758
#
# Disc length: 4395 seconds
#
# Revision: 0
# Processed by: cddbd v1.5.1PL2 Copyright (c) Steve Scherf et al.
# Submitted via: ExactAudioCopy v0.95b3
#
DISCID=20112914
DTITLE=Professor Longhair - Do the Mess Around
DYEAR=2005
DGENRE=Blues
TTITLE0=Mardi Gras
TTITLE1=Big Chief
TTITLE2=Everyday I Have the Blues
TTITLE3=Tipitina
TTITLE4=Mess Around
TTITLE5=Tell Me Pretty Baby
TTITLE6=Junko Partner
TTITLE7=Levely Lady
TTITLE8=Jambalaya
TTITLE9=Whole Lotta Lovin'
TTITLE10=Bald Head
TTITLE11=Mardi Gras in New Orleans
TTITLE12=Stagger Lee
TTITLE13=I'm Movin' On
TTITLE14=Hey Now Baby
TTITLE15=Doin' It
TTITLE16=Hey Little Girl
TTITLE17=How Long
TTITLE18=Cry to Me
TTITLE19=Rum and Coca Cola
EXTD=
EXTT0=
EXTT1=
EXTT2=
EXTT3=
EXTT4=
EXTT5=
EXTT6=
EXTT7=
EXTT8=
EXTT9=
EXTT10=
EXTT11=
EXTT12=
EXTT13=
EXTT14=
EXTT15=
EXTT16=
EXTT17=
EXTT18=
EXTT19=
PLAYORDER=
